<?xml version="1.0" encoding="UTF-8"?>
<svg id="Capa_2" data-name="Capa 2" xmlns="http://www.w3.org/2000/svg" viewBox="0 0 424.47 424.47">
  <defs>
    <style>
      .cls-1 {
        fill: #ffed00;
      }

      .cls-2 {
        fill: #424241;
      }
    </style>
  </defs>
  <g id="Layer_1" data-name="Layer 1">
    <g>
      <path class="cls-1" d="M424.47,211.31c0,117.6-95.55,213.15-213.15,213.15S0,328.92,0,211.31,93.71,0,211.32,0s213.15,95.55,213.15,211.31Z"/>
      <g>
        <path class="cls-2" d="M154.52,287.87v-151.27h65.61c7.87,0,15.54.87,23.01,2.6,7.47,1.73,14.16,4.6,20.06,8.61,5.9,4.01,10.62,9.28,14.16,15.81,3.54,6.53,5.31,14.67,5.31,24.43s-1.53,18.41-4.6,25.49c-3.07,7.08-7.32,12.86-12.74,17.35-5.43,4.48-11.8,7.79-19.12,9.91-7.32,2.12-15.22,3.19-23.72,3.19h-31.15v43.9h-36.82ZM191.33,212.59h27.61c3.3,0,6.57-.31,9.79-.94,3.22-.63,6.05-1.77,8.5-3.42,2.44-1.65,4.4-4.01,5.9-7.08,1.49-3.07,2.24-6.96,2.24-11.68,0-5.03-.79-8.97-2.36-11.8-1.57-2.83-3.66-4.96-6.25-6.37-2.6-1.42-5.43-2.32-8.5-2.71-3.07-.39-6.18-.59-9.32-.59h-27.61v44.6Z"/>
        <path class="cls-2" d="M361.41,211.59c0,82.66-67.16,149.83-149.83,149.83S63.05,294.25,63.05,211.59,128.93,63.05,211.59,63.05s149.83,67.16,149.83,148.53ZM333,211.59c0-65.87-54.25-121.41-121.41-121.41s-121.41,55.54-121.41,121.41,54.25,121.41,121.41,121.41,121.41-54.25,121.41-121.41Z"/>
      </g>
    </g>
  </g>
</svg>